# xmcd CD database file
#
# Track frame offsets:
#	225
#	17661
#	35897
#	49708
#	65398
#	80672
#	94852
#	123009
#	146860
#	167286
#
# Disc length: 2702 seconds
#
# Revision: 3
# Processed by: cddbd v1.5.1PL0 Copyright (c) Steve Scherf et al.
# Submitted via: CDex 1.51
#
DISCID=810a8b0a
DTITLE=Dusko Gojkovic - Belgrade Blues
DYEAR=1961
DGENRE=Jazz
TTITLE0=La Campimania
TTITLE1=You're Too Beautiful
TTITLE2=Lullaby Of The Leaves
TTITLE3=Doo-Doosh
TTITLE4=Mr, X
TTITLE5=That's All
TTITLE6=Belgrade Blues
TTITLE7=Wee
TTITLE8=It's The Talk Of The Town
TTITLE9=Be My Love
EXTD=YEAR: 1961
EXTT0=
EXTT1=
EXTT2=
EXTT3=
EXTT4=
EXTT5=
EXTT6=
EXTT7=
EXTT8=
EXTT9=
PLAYORDER=
